<svg width="60" height="60" viewBox="0 0 60 60" xmlns="http://www.w3.org/2000/svg">
  <defs>
    <linearGradient id="flowGradient3" x1="0%" y1="50%" x2="100%" y2="50%">
      <stop offset="0%" style="stop-color:#2563eb"/>
      <stop offset="100%" style="stop-color:#06b6d4"/>
    </linearGradient>
    <linearGradient id="titleGradient2" x1="0%" y1="0%" x2="100%" y2="0%">
      <stop offset="0%" style="stop-color:#1e293b"/>
      <stop offset="40%" style="stop-color:#2563eb"/>
      <stop offset="100%" style="stop-color:#0891b2"/>
    </linearGradient>
    <filter id="textShadow2">  
      <feDropShadow dx="1" dy="1" stdDeviation="1" flood-color="#cbd5e1" flood-opacity="0.3"/>
    </filter>
  </defs>

  <!-- Move content 5 units up -->
  <g transform="translate(0, -5)">
    <rect x="5" y="20" width="50" height="35" fill="#f8fafc" rx="6" stroke="#e2e8f0" stroke-width="1"/>
    <rect x="5" y="20" width="50" height="35" fill="none" rx="6" stroke="url(#flowGradient3)" stroke-width="0.5" opacity="0.3"/>
    
    <path d="M10,27 Q20,25 30,27 T50,27" stroke="url(#flowGradient3)" stroke-width="2.5" fill="none" stroke-linecap="round"/>
    <path d="M10,35 Q20,33 30,35 T50,35" stroke="url(#flowGradient3)" stroke-width="3" fill="none" stroke-linecap="round"/>
    <path d="M10,43 Q20,41 30,43 T50,43" stroke="url(#flowGradient3)" stroke-width="2.5" fill="none" stroke-linecap="round"/>
    
    <circle cx="15" cy="28" r="3.5" fill="#7dd3fc" opacity="0.8"/>
    <circle cx="32" cy="38" r="3" fill="#67e8f9" opacity="0.9"/>
    <circle cx="45" cy="31" r="3.2" fill="#a5f3fc" opacity="0.7"/>
    
    <rect x="8" y="50" width="44" height="2" fill="#e2e8f0" rx="1"/>
  </g>
</svg>
